<svg class="animated" id="freepik_stories-fish-bowl" xmlns="http://www.w3.org/2000/svg" xmlns:xlink="http://www.w3.org/1999/xlink" viewBox="0 0 500 500" version="1.1" xmlns:svgjs="http://svgjs.com/svgjs"><style>svg#freepik_stories-fish-bowl:not(.animated) .animable {opacity: 0;}svg#freepik_stories-fish-bowl.animated #freepik--Goldfish--inject-37 {animation: 1.5s Infinite  linear floating;animation-delay: 0s;}            @keyframes floating {                0% {                    opacity: 1;                    transform: translateY(0px);                }                50% {                    transform: translateY(-10px);                }                100% {                    opacity: 1;                    transform: translateY(0px);                }            }        </style><g id="freepik--background-simple--inject-37" class="animable" style="transform-origin: 251.717px 235.653px;"><path d="M35,204.21C45,145.86,69.74,75.4,128.69,58.58c85.26-24.33,118,107.71,170.88,129.16,31.58,12.82,113.45-14.34,150,19.07,58.05,53.06-23.35,141.23-69.91,167.43-68,38.24-159.15,51.76-209.51,33.26C113.68,386.74,69,340.27,50.24,305,38.17,282.35,30.6,230,35,204.21Z" style="fill: #FF725E; transform-origin: 251.712px 235.651px;" id="elgvscy6dchem" class="animable"></path><g id="elv9u33zk8p8g"><path d="M449.58,206.81c-36.56-33.41-118.43-6.25-150-19.07C246.69,166.29,214,34.25,128.69,58.58,69.74,75.4,45,145.86,35,204.21,30.6,230,38.17,282.35,50.24,305,69,340.27,113.68,386.74,170.16,407.5c50.36,18.5,141.55,5,209.51-33.26C426.23,348,507.63,259.87,449.58,206.81Z" style="fill: rgb(255, 255, 255); opacity: 0.7; transform-origin: 251.717px 235.653px;" class="animable" id="elru5xdc3p9z"></path></g></g><g id="freepik--Shadow--inject-37" class="animable" style="transform-origin: 251.529px 429.59px;"><path d="M169.13,416.87S18.55,442.31,166,442.31c159.48,0,296.77-25.44,207.69-25.44Z" style="fill: rgb(153, 153, 153); transform-origin: 251.529px 429.59px;" id="eldlgz89w9eg" class="animable"></path></g><g id="freepik--Floor--inject-37" class="animable" style="transform-origin: 249.95px 416.87px;"><line x1="36.93" y1="416.87" x2="462.97" y2="416.87" style="fill: none; stroke: rgb(38, 50, 56); stroke-linecap: round; stroke-linejoin: round; stroke-width: 1.03017px; transform-origin: 249.95px 416.87px;" id="ele4433epuoy8" class="animable"></line></g><g id="freepik--fish-bowl--inject-37" class="animable" style="transform-origin: 249.941px 263.44px;"><path d="M369,114.33H131A178.93,178.93,0,0,0,180.3,412.74a52,52,0,0,0,20.24,4.13h98.81a52,52,0,0,0,20.25-4.13A178.94,178.94,0,0,0,369,114.33Z" style="fill: rgb(255, 255, 255); transform-origin: 249.98px 265.6px;" id="elzwbbeqddrvl" class="animable"></path><path d="M71,247.91A179,179,0,0,0,180.3,412.74a52,52,0,0,0,20.24,4.13h98.81a52,52,0,0,0,20.25-4.13A179,179,0,0,0,408,164H91.91A178.09,178.09,0,0,0,71,247.91Z" style="fill: #FF725E; transform-origin: 249.935px 290.435px;" id="eluy3tkqmit6n" class="animable"></path><g id="elnetqvxs8uj"><path d="M71,247.91A179,179,0,0,0,180.3,412.74a52,52,0,0,0,20.24,4.13h98.81a52,52,0,0,0,20.25-4.13A179,179,0,0,0,408,164H91.91A178.09,178.09,0,0,0,71,247.91Z" style="fill: rgb(255, 255, 255); opacity: 0.5; transform-origin: 249.935px 290.435px;" class="animable" id="el0dci4npmus4f"></path></g><ellipse cx="249.95" cy="164.02" rx="158.03" ry="4.31" style="fill: #FF725E; transform-origin: 249.95px 164.02px;" id="el179bblo4frg" class="animable"></ellipse><g id="ell3jqp4j572d"><path d="M282.65,358.57C178.6,364.66,128,251.2,91.29,245.28c-10.57-1.7-16.73,2.14-20.15,8.47a179,179,0,0,0,109.16,159,52,52,0,0,0,20.24,4.13h98.81a52,52,0,0,0,20.25-4.13,179.57,179.57,0,0,0,95.55-96C383.9,308.32,386.69,352.48,282.65,358.57Z" style="opacity: 0.1; transform-origin: 243.145px 330.878px;" class="animable" id="elzlfhcjazovi"></path></g><g id="elf49hk1qbcdu"><path d="M317.44,114.33h-1.71a178.93,178.93,0,0,1-49.35,298.41,51.92,51.92,0,0,1-20.24,4.13H273.6c7,0,24.14-1.42,30.54-4.13A178.94,178.94,0,0,0,413.4,247.91C413.4,194.8,379.26,130,317.44,114.33Z" style="fill: rgb(255, 255, 255); opacity: 0.2; transform-origin: 329.77px 265.6px;" class="animable" id="eliovmv1lapi"></path></g><path d="M369,114.33H131A178.93,178.93,0,0,0,180.3,412.74a52,52,0,0,0,20.24,4.13h98.81a52,52,0,0,0,20.25-4.13A178.94,178.94,0,0,0,369,114.33Z" style="fill: none; stroke: rgb(38, 50, 56); stroke-linecap: round; stroke-linejoin: round; stroke-width: 1.03017px; transform-origin: 249.98px 265.6px;" id="elks4tgd83kef" class="animable"></path><path d="M369,114.33c0,2.39-53.28,4.32-119,4.32s-119-1.93-119-4.32S184.23,110,250,110,369,112,369,114.33Z" style="fill: rgb(153, 153, 153); stroke: rgb(38, 50, 56); stroke-linecap: round; stroke-linejoin: round; stroke-width: 1.03017px; transform-origin: 250px 114.325px;" id="elcqlyov19yvn" class="animable"></path></g><g id="freepik--Decoration--inject-37" class="animable" style="transform-origin: 233.841px 290.443px;"><path d="M165.8,313.29s3-14.12.66-14.63-3.59,15.78-3.59,15.78-1.93-15.48-4.49-14.74,2.2,15.52,2.2,15.52-5.79-14-7.82-13.6,5.07,14.55,5.07,14.55-7.78-12-9.48-10.94,6.29,12.63,6.29,12.63-7.74-10.87-9.16-9.79,5.18,10,5.86,10.88c-.65-.89-6.71-9-7.9-7.87s5.18,9.25,5.72,9.93c-.49-.62-5.92-7.42-7.13-6.68s4.23,7.52,4.23,7.52-4.06-5.22-5.28-4.34,2.83,5.06,2.83,5.06l-1.76.59q-4.92-11.51-8.75-23.47c10.59-1.79,27.52-6.75,28.28-19.6,1-16.33-2.74,2.59-2.74,2.59s-.88-14.87-2.63-14.4.51,18.43.51,18.43-4.41-18.82-5.88-18.14c-1.25.58,1.85,14.57,2.81,18.75-.94-4-4.07-16.74-5.51-16.11-1.7.74,3,18.27,3,18.27s-4.61-15-5.79-14.79,3.38,16.11,3.38,16.11-6.32-17.21-8-16.44,5.65,18.38,5.65,18.38-8.18-15.66-9.43-15.1,5.8,13.58,6.84,15.53c-.93-1.74-6.6-12.14-7.82-11.47-.89.49,1.93,5.86,3.89,9.36-1.79-3-4.41-7.15-5-6.48-.87,1.05,4.73,10.05,4.73,10.05s-5.36-7.95-6.4-7.13,4.3,7.71,4.3,7.71-4.63-4.91-5.52-4,4,5.17,4,5.17-2.27-1-4.21-1.7c-2.61-8.66-4.79-17.44-6.56-26.28,10.75-.59,28.37-3.71,30.47-16.61,2.66-16.32-3,2.3-3,2.3s.69-15-1.11-14.74-1.42,18.56-1.42,18.56-3.43-19.44-3.95-18.85c-1.16,1.32-1.11,5-.66,9.19-.71-3.81-1.54-7.07-2.3-6.83-1.77.56,1.11,18.68,1.11,18.68s-3-15.61-4.21-15.48,1.68,16.54,1.68,16.54-4.49-18-6.26-17.38,3.7,19.07,3.7,19.07-6.51-16.61-7.8-16.19S135.8,261,136.63,263c-.74-1.83-5.3-12.91-6.58-12.37-.94.39,1.31,6.09,2.89,9.82-1.47-3.23-3.64-7.66-4.27-7.05-1,1,3.65,10.6,3.65,10.6s-4.5-8.56-5.63-7.85,3.48,8.21,3.48,8.21-4.82-5.39-5.8-4.54,4.12,5.56,4.12,5.56-2.39-1.42-4.31-2.3c-1.46-8-2.58-16.08-3.38-24.11,10.37,1.26,22.13-1.17,28.18-10.67,9.4-14.79-2.68.8-2.68.8s4.4-14.3,2.12-15-5.15,16-5.15,16-.37-16.18-3-15.63.63,16.22.63,16.22-4.35-15-6.41-14.69,3.58,15.45,3.58,15.45-6.53-13-8.33-12,5,13.52,5,13.52-6.61-11.8-8.13-10.78,4.19,10.68,4.75,11.65c-.54-.93-5.78-9.75-7.07-8.67s4.22,9.87,4.7,10.62c-.44-.69-5.16-8-6.43-7.36s3.47,8,3.47,8-4.24-5.55-5.54-4.72,3,5.3,3,5.3l-2.9.79a1.85,1.85,0,0,0-1.93-1.56,2,2,0,0,0-1.62,2.3.34.34,0,0,1,0,.1l-1.77-.42s4.55-3.85,4.3-5-6.13,4-6.13,4,4.31-5.67,3.22-6.37-5,5.64-5,5.64,3.49-8.47,2.29-9.05-4.47,9.08-4.47,9.08,3.28-10.79,2.2-11.67c-.64-.53-2,3.8-3.07,7.34,1.07-4.14,2.35-9.8,1.44-10.09-1.11-.37-3.52,8.48-4.55,12.52,1.16-4.72,3.91-16.34,2.86-16.61-1.32-.33-5.9,18.61-5.9,18.61.88-6.58,2.21-21.29,1.65-21.39,0,0-3.81,13.91-4.45,20,0,0,1.13-18.69-.08-18.73s-2.59,18-2.59,18c.16-6.69-.13-21.39-.65-21.44L94.1,234.22s-.35-23.68-.77-23.72c0,0-2.38,22.54-2.39,22.54s-.17-19.78-3-21.92c-.71-.54,0,17.83,0,17.83s-7.53-22-3.25-2.32c3.13,14.33,21,14.71,32.54,13q1.08,10.84,3,21.69c-1.57.73-4.15,5.63-4.15,5.63s3.65-8.14,2.24-8.67-4.52,6.82-5.17,8.34c.72-1.68,4.41-10.52,3.08-11.42s-5.12,8.26-5.77,9.87c.67-1.69,4.65-11.83,3.18-12.65s-6.72,12.45-6.72,12.45,5.23-14.19,3.37-15-6.89,14-6.89,14,4-17.06,1.93-17.23-4.84,16.86-4.84,16.86,1.64-17.72-1-18.19S98,263.14,98,263.14s-4.49-18.85-6.72-17.86,3.59,17.27,3.59,17.27-13.49-16.36-2.77-.52c6.37,9.4,19.55,9.85,29.42,6.57,1.76,8.88,3.94,17.71,6.53,26.42a40.3,40.3,0,0,0-2.52,4.61s1.59-8.49.32-8.89-2.48,9.19-2.48,9.19,1.78-10.83.6-11.54c-.72-.43-1.52,3.94-2.06,7.48.5-4.14,1-9.76.06-9.93-1.16-.21-2.34,8.65-2.82,12.67.51-4.68,1.67-16.26.59-16.39-1.36-.16-3.33,18.68-3.33,18.68,0-6.44,1.24-18.83-1.27-20.84-.7-.56-1.7,19.86-1.7,19.86s-1.42-18.18-2.62-18.08-.12,17.71-.12,17.71c-.74-6.46-3-20.63-3.56-20.61l.63,20.7s-3.55-22.82-4-22.8c0,0,.7,22,.69,22s-2.86-19.06-5.93-20.8c-.8-.45,2.37,17.21,2.37,17.21s-10.49-20.36-3.54-1.86c5,13.17,21.73,11.8,32.93,8.86q2.93,8.91,6.44,17.61a31,31,0,0,0-1.1,5.79s.29-9-1.18-8.83c-1.32.11-1.55,8.14-1.58,9.82,0-1.86.09-11.47-1.44-11.7s-1.56,9.75-1.55,11.5c0-1.83-.19-12.79-1.82-12.88-1.78-.1-1.43,14.3-1.43,14.3s-.56-15.21-2.54-15.13-1,15.78-1,15.78-2.75-17.29-4.67-16.5,1.94,17.5,1.94,17.5-5.14-16.82-7.69-16,5.42,16.87,5.42,16.87-11.06-15-12.68-13,9.67,13.92,9.67,13.92-18.18-8.34-2.65.83c8.88,5.25,19.68.36,27-5.8A241,241,0,0,0,161,365.57a1.86,1.86,0,0,0,2.27.75,1.55,1.55,0,0,0,.32-.2,2,2,0,0,0,.34-2.73,237.28,237.28,0,0,1-21.19-38.6c9.94.21,20.68-3.08,25.64-12.52C176.33,297.17,165.8,313.29,165.8,313.29Z" style="fill: #FF725E; transform-origin: 127.362px 288.476px;" id="elh9wm74jezn6" class="animable"></path><g id="elwqtvaa28uxm"><path d="M165.8,313.29s3-14.12.66-14.63-3.59,15.78-3.59,15.78-1.93-15.48-4.49-14.74,2.2,15.52,2.2,15.52-5.79-14-7.82-13.6,5.07,14.55,5.07,14.55-7.78-12-9.48-10.94,6.29,12.63,6.29,12.63-7.74-10.87-9.16-9.79,5.18,10,5.86,10.88c-.65-.89-6.71-9-7.9-7.87s5.18,9.25,5.72,9.93c-.49-.62-5.92-7.42-7.13-6.68s4.23,7.52,4.23,7.52-4.06-5.22-5.28-4.34,2.83,5.06,2.83,5.06l-1.76.59q-4.92-11.51-8.75-23.47c10.59-1.79,27.52-6.75,28.28-19.6,1-16.33-2.74,2.59-2.74,2.59s-.88-14.87-2.63-14.4.51,18.43.51,18.43-4.41-18.82-5.88-18.14c-1.25.58,1.85,14.57,2.81,18.75-.94-4-4.07-16.74-5.51-16.11-1.7.74,3,18.27,3,18.27s-4.61-15-5.79-14.79,3.38,16.11,3.38,16.11-6.32-17.21-8-16.44,5.65,18.38,5.65,18.38-8.18-15.66-9.43-15.1,5.8,13.58,6.84,15.53c-.93-1.74-6.6-12.14-7.82-11.47-.89.49,1.93,5.86,3.89,9.36-1.79-3-4.41-7.15-5-6.48-.87,1.05,4.73,10.05,4.73,10.05s-5.36-7.95-6.4-7.13,4.3,7.71,4.3,7.71-4.63-4.91-5.52-4,4,5.17,4,5.17-2.27-1-4.21-1.7c-2.61-8.66-4.79-17.44-6.56-26.28,10.75-.59,28.37-3.71,30.47-16.61,2.66-16.32-3,2.3-3,2.3s.69-15-1.11-14.74-1.42,18.56-1.42,18.56-3.43-19.44-3.95-18.85c-1.16,1.32-1.11,5-.66,9.19-.71-3.81-1.54-7.07-2.3-6.83-1.77.56,1.11,18.68,1.11,18.68s-3-15.61-4.21-15.48,1.68,16.54,1.68,16.54-4.49-18-6.26-17.38,3.7,19.07,3.7,19.07-6.51-16.61-7.8-16.19S135.8,261,136.63,263c-.74-1.83-5.3-12.91-6.58-12.37-.94.39,1.31,6.09,2.89,9.82-1.47-3.23-3.64-7.66-4.27-7.05-1,1,3.65,10.6,3.65,10.6s-4.5-8.56-5.63-7.85,3.48,8.21,3.48,8.21-4.82-5.39-5.8-4.54,4.12,5.56,4.12,5.56-2.39-1.42-4.31-2.3c-1.46-8-2.58-16.08-3.38-24.11,10.37,1.26,22.13-1.17,28.18-10.67,9.4-14.79-2.68.8-2.68.8s4.4-14.3,2.12-15-5.15,16-5.15,16-.37-16.18-3-15.63.63,16.22.63,16.22-4.35-15-6.41-14.69,3.58,15.45,3.58,15.45-6.53-13-8.33-12,5,13.52,5,13.52-6.61-11.8-8.13-10.78,4.19,10.68,4.75,11.65c-.54-.93-5.78-9.75-7.07-8.67s4.22,9.87,4.7,10.62c-.44-.69-5.16-8-6.43-7.36s3.47,8,3.47,8-4.24-5.55-5.54-4.72,3,5.3,3,5.3l-2.9.79a1.85,1.85,0,0,0-1.93-1.56,2,2,0,0,0-1.62,2.3.34.34,0,0,1,0,.1l-1.77-.42s4.55-3.85,4.3-5-6.13,4-6.13,4,4.31-5.67,3.22-6.37-5,5.64-5,5.64,3.49-8.47,2.29-9.05-4.47,9.08-4.47,9.08,3.28-10.79,2.2-11.67c-.64-.53-2,3.8-3.07,7.34,1.07-4.14,2.35-9.8,1.44-10.09-1.11-.37-3.52,8.48-4.55,12.52,1.16-4.72,3.91-16.34,2.86-16.61-1.32-.33-5.9,18.61-5.9,18.61.88-6.58,2.21-21.29,1.65-21.39,0,0-3.81,13.91-4.45,20,0,0,1.13-18.69-.08-18.73s-2.59,18-2.59,18c.16-6.69-.13-21.39-.65-21.44L94.1,234.22s-.35-23.68-.77-23.72c0,0-2.38,22.54-2.39,22.54s-.17-19.78-3-21.92c-.71-.54,0,17.83,0,17.83s-7.53-22-3.25-2.32c3.13,14.33,21,14.71,32.54,13q1.08,10.84,3,21.69c-1.57.73-4.15,5.63-4.15,5.63s3.65-8.14,2.24-8.67-4.52,6.82-5.17,8.34c.72-1.68,4.41-10.52,3.08-11.42s-5.12,8.26-5.77,9.87c.67-1.69,4.65-11.83,3.18-12.65s-6.72,12.45-6.72,12.45,5.23-14.19,3.37-15-6.89,14-6.89,14,4-17.06,1.93-17.23-4.84,16.86-4.84,16.86,1.64-17.72-1-18.19S98,263.14,98,263.14s-4.49-18.85-6.72-17.86,3.59,17.27,3.59,17.27-13.49-16.36-2.77-.52c6.37,9.4,19.55,9.85,29.42,6.57,1.76,8.88,3.94,17.71,6.53,26.42a40.3,40.3,0,0,0-2.52,4.61s1.59-8.49.32-8.89-2.48,9.19-2.48,9.19,1.78-10.83.6-11.54c-.72-.43-1.52,3.94-2.06,7.48.5-4.14,1-9.76.06-9.93-1.16-.21-2.34,8.65-2.82,12.67.51-4.68,1.67-16.26.59-16.39-1.36-.16-3.33,18.68-3.33,18.68,0-6.44,1.24-18.83-1.27-20.84-.7-.56-1.7,19.86-1.7,19.86s-1.42-18.18-2.62-18.08-.12,17.71-.12,17.71c-.74-6.46-3-20.63-3.56-20.61l.63,20.7s-3.55-22.82-4-22.8c0,0,.7,22,.69,22s-2.86-19.06-5.93-20.8c-.8-.45,2.37,17.21,2.37,17.21s-10.49-20.36-3.54-1.86c5,13.17,21.73,11.8,32.93,8.86q2.93,8.91,6.44,17.61a31,31,0,0,0-1.1,5.79s.29-9-1.18-8.83c-1.32.11-1.55,8.14-1.58,9.82,0-1.86.09-11.47-1.44-11.7s-1.56,9.75-1.55,11.5c0-1.83-.19-12.79-1.82-12.88-1.78-.1-1.43,14.3-1.43,14.3s-.56-15.21-2.54-15.13-1,15.78-1,15.78-2.75-17.29-4.67-16.5,1.94,17.5,1.94,17.5-5.14-16.82-7.69-16,5.42,16.87,5.42,16.87-11.06-15-12.68-13,9.67,13.92,9.67,13.92-18.18-8.34-2.65.83c8.88,5.25,19.68.36,27-5.8A241,241,0,0,0,161,365.57a1.86,1.86,0,0,0,2.27.75,1.55,1.55,0,0,0,.32-.2,2,2,0,0,0,.34-2.73,237.28,237.28,0,0,1-21.19-38.6c9.94.21,20.68-3.08,25.64-12.52C176.33,297.17,165.8,313.29,165.8,313.29Z" style="opacity: 0.3; transform-origin: 127.362px 288.476px;" class="animable" id="elc4ps74a78ec"></path></g><path d="M198.34,311.87s7.07-17.25,4.22-18.43-8.21,19.22-8.21,19.22,1.13-20.13-2.3-19.78-.79,20.23-.79,20.23S187.15,294,184.48,294s3.06,19.67,3.06,19.67-7.11-17-9.51-16.11,5.07,17.52,5.07,17.52-7.32-15.61-9.38-14.56,4.29,13.85,4.94,15.17c-.63-1.27-6.45-13-8.22-11.82s4.44,12.95,5,13.94c-.48-.9-5.81-10.8-7.52-10.14s3.64,10.53,3.64,10.53-3.95-7.57-5.71-6.73,2.43,7.08,2.43,7.08l-2.37.34c-2.4-10.5-4.28-21.14-5.69-31.84,13.87.18,36.53-2.21,40.48-18.35,5-20.53-4.09,2.65-4.09,2.65s2.33-19.1,0-18.91S193,276,193,276s-1.24-24.93-3.27-24.41c-1.72.45-1,18.94-.76,24.47-.27-5.28-1.3-22.21-3.27-21.75-2.34.56-.38,23.93-.38,23.93s-2.37-20.19-3.93-20.13.57,21.24.57,21.24-4.06-23.32-6.39-22.74,2.93,24.66,2.93,24.66-6.78-21.79-8.49-21.37,4.23,18.6,5.1,21.32c-.79-2.43-5.58-17-7.28-16.39-1.24.41,1.09,7.89,2.77,12.8-1.57-4.26-4-10.11-4.82-9.39-1.36,1.13,3.68,13.86,3.68,13.86s-5-11.34-6.49-10.53,3.69,10.79,3.69,10.79-4.75-7.32-6.1-6.32,3.84,7.47,3.84,7.47-2.66-1.83-5-3.13c-1.3-11.6-2-23.26-2.24-34.9,13.79,1.73,36.9,1.84,42.56-14,7.16-20.12-4.34,2.23-4.34,2.23s4.35-18.95,2-19-6.1,23.26-6.1,23.26.14-25.49-.66-24.86c-1.78,1.41-2.58,6.11-3,11.51,0-5-.31-9.34-1.33-9.21-2.39.31-2.92,24-2.92,24s-.21-20.53-1.77-20.64-1.69,21.4-1.69,21.4-1.55-23.86-3.94-23.53.29,25.08.29,25.08-4.41-22.61-6.16-22.37,2.23,19.15,2.81,22c-.53-2.5-3.76-17.63-5.51-17.24-1.28.28.25,8,1.41,13.15-1.12-4.45-2.86-10.58-3.81-9.95-1.47,1,2.19,14.31,2.19,14.31s-3.73-11.92-5.33-11.27,2.52,11.23,2.52,11.23-4.88-8-6.32-7.11,4,8,4,8-2.71-2.36-5-3.93c0-10.52.45-21,1.29-31.41,12.88,4,28.39,3.64,38.27-7,15.38-16.61-3.59.39-3.59.39s8.91-17.15,6.19-18.63S189,200.89,189,200.89s3.29-20.64-.17-20.55-3,20.76-3,20.76-2.06-20-4.74-20.15,1,20.45,1,20.45-5.3-18-7.79-17.22,3.21,18.33,3.21,18.33-5.66-16.51-7.83-15.57,2.84,14.54,3.34,15.9c-.48-1.31-5.09-13.73-7-12.66s3.08,13.52,3.51,14.59c-.4-1-4.68-11.42-6.46-10.84s2.55,11,2.55,11-4.1-8-5.94-7.27,2.63,7.42,2.63,7.42l-3.86.34a2.4,2.4,0,0,0-2.1-2.43,2.63,2.63,0,0,0-2.59,2.55.57.57,0,0,1,0,.13l-2.15-.95s6.67-3.83,6.61-5.3-8.71,3.66-8.71,3.66,6.78-6.2,5.56-7.35-7.72,6-7.72,6,6.4-9.95,5-11-7.77,10.5-7.77,10.5,6.66-12.95,5.5-14.31c-.7-.82-3.49,4.35-5.61,8.62,2.32-5,5.25-11.92,4.17-12.5-1.33-.72-6.43,10-8.69,14.85,2.57-5.72,8.76-19.84,7.49-20.43-1.6-.73-11.8,22.27-11.8,22.27,2.63-8.16,7.72-26.53,7.05-26.79,0,0-8.08,16.79-10.29,24.4,0,0,5.75-23.49,4.23-23.83s-7.46,22.3-7.46,22.3c1.75-8.46,4.79-27.21,4.13-27.39l-7.76,26.37s5-30.17,4.52-30.32c0,0-8.25,28.09-8.26,28.09s4.37-25.17,1.29-28.54c-.78-.86-4.18,22.64-4.18,22.64s-4.48-29.65-3.59-3.7c.66,18.94,23.32,23.56,38.34,24q-1.12,14-1.26,28.25c-2.17.56-6.57,6.19-6.57,6.19s6.51-9.49,4.84-10.5c-1.49-.9-7.31,7.63-8.5,9.4,1.3-2,8.05-12.34,6.56-13.79s-8.42,9.31-9.62,11.2c1.25-2,8.65-14,7-15.34-1.83-1.5-11.42,14.27-11.42,14.27s9.93-16.82,7.76-18.29-12,16.14-12,16.14,9-20.75,6.45-21.44-10,20.3-10,20.3S133,211.25,129.76,210s-5.94,22.41-5.94,22.41-1.34-25-4.41-24.24S120,231,120,231s-13.34-23.91-3.39-1.32c5.91,13.43,22.56,17.06,35.85,15.16.19,11.7.91,23.43,2.19,35.09a51.19,51.19,0,0,0-4.28,5.27s4-10.41,2.47-11.22-5.28,11.11-5.28,11.11,4.77-13.35,3.43-14.53c-.8-.71-2.84,4.65-4.34,9,1.59-5.14,3.53-12.17,2.37-12.61-1.42-.53-5,10.46-6.51,15.45,1.73-5.83,5.88-20.28,4.54-20.69-1.68-.52-8.55,23-8.55,23,1.46-8.19,5.93-23.64,3.21-26.78-.76-.88-6.75,24.84-6.75,24.84s2.4-23.42.84-23.57-4.25,22.47-4.25,22.47c.56-8.38.94-26.92.24-27l-4,26.44s.78-29.81.22-29.89c0,0-4.22,28.16-4.23,28.16s.78-24.88-2.71-27.81c-.92-.76-1,22.42-1,22.42s-8.61-28.3-4.07-3.19c3.24,17.88,24.88,20,39.79,18.89q1.65,12,4.1,23.86a39.56,39.56,0,0,0-2.73,7.1s2.44-11.32.54-11.49c-1.7-.16-3.85,10-4.28,12.11.46-2.35,2.77-14.55.88-15.19s-4.24,12-4.64,14.25c.4-2.33,2.72-16.3.67-16.79-2.23-.54-5.12,17.84-5.12,17.84s2.81-19.46.28-19.81-4.93,19.82-4.93,19.82.51-22.61-2.12-22.05S136.88,322,136.88,322s-2.64-22.56-6.06-22.12,3,22.68,3,22.68S123.21,301,120.7,303.13s9.06,19.93,9.06,19.93-21.18-14.81-3.57.44c10.07,8.72,24.92,5,35.68-1.12a310.36,310.36,0,0,0,18.29,54.8,2.4,2.4,0,0,0,2.71,1.48,2.14,2.14,0,0,0,.46-.17,2.6,2.6,0,0,0,1.06-3.39,305.29,305.29,0,0,1-18-54c12.57,2.57,27,.87,35.46-10C215.45,293.83,198.34,311.87,198.34,311.87Z" style="fill: #FF725E; stroke: rgb(38, 50, 56); stroke-miterlimit: 10; stroke-width: 0.772628px; transform-origin: 160.012px 271.352px;" id="el58kql8uafpl" class="animable"></path><path d="M169.13,367.79s5.94-7.19,16-2.5c0,0,13.75-2.19,21.26,7.19,0,0,9.06-3.75,15,2.81,0,0,7.57,1.27,8.13,3.75,0,0,9.7-5,12.51,0,0,0,14.69-4.37,19.07,2.19s-7.19,13.45-7.19,13.45H232.29l-33.77-3.13L181,381.23Z" style="fill: rgb(133, 133, 133); stroke: rgb(38, 50, 56); stroke-linecap: round; stroke-linejoin: round; stroke-width: 1.03017px; transform-origin: 215.61px 379.191px;" id="ellkjsrrfwlhg" class="animable"></path><path d="M370.47,380.11c.13-11.27-15.63-2.32-15.63-2.32-2-11.08-11.56-.62-11.56-.62-7.19-6.88-20.33,6.88-20.33,6.88-.62-4.69-9.69-2.51-9.69-2.51-2.5-10.31-19.69-1.25-19.69-1.25-2.19-8.12-11.57-2.18-11.57-2.18-7.19-7.82-12.82,2.18-12.82,2.18-7.19-4.06-14.69,1.88-14.69,1.88-4.07-3.13-9.7,1.88-9.7,1.88-4.06-4.38-17.51-2.19-17.51-2.19-9.06-7.51-21.88-3.13-21.88-3.13-6.57-6.25-12.51-3.44-12.51-3.44-3.12-6.88-9.06-5.31-9.06-5.31-2.82-4.69-9.69-4.38-9.69-4.38-6.57-5.94-15.32-2.81-15.32-2.81-6.88-8.13-16.26-1.25-16.26-1.25-5.63-10.63-16.88-5.94-16.88-5.94-8.86-9.4-17-7.93-22.26-5a179.62,179.62,0,0,0,76.88,62.16,52,52,0,0,0,20.24,4.13h98.81a52,52,0,0,0,20.25-4.13A179,179,0,0,0,370.47,380.11Z" style="fill: rgb(38, 50, 56); stroke: rgb(38, 50, 56); stroke-linecap: round; stroke-linejoin: round; stroke-width: 0.772628px; transform-origin: 236.945px 382.634px;" id="elr1wdo8vrfy" class="animable"></path><path d="M139.27,367.34c-.84,2.57-4.29-1.41-9.58-3.14s-10.43-.57-9.59-3.15,5.82-3.25,11.12-1.52S140.12,364.76,139.27,367.34Z" style="fill: rgb(133, 133, 133); stroke: rgb(38, 50, 56); stroke-linecap: round; stroke-linejoin: round; stroke-width: 1.03017px; transform-origin: 129.702px 363.376px;" id="elap5hsz9luh5" class="animable"></path><path d="M354.57,382.65c.77,2.6-4.33,1.27-9.68,2.85s-8.9,5.45-9.67,2.85,2.94-6,8.29-7.56S353.8,380.05,354.57,382.65Z" style="fill: rgb(153, 153, 153); stroke: rgb(38, 50, 56); stroke-linecap: round; stroke-linejoin: round; stroke-width: 1.03017px; transform-origin: 344.883px 384.613px;" id="elnfu0otgrbmo" class="animable"></path><path d="M155.39,377.2c-.56,2.1-3.5-.93-7.83-2.09s-8.38,0-7.82-2.08,4.52-2.88,8.84-1.72S156,375.1,155.39,377.2Z" style="fill: rgb(153, 153, 153); stroke: rgb(38, 50, 56); stroke-linecap: round; stroke-linejoin: round; stroke-width: 1.03017px; transform-origin: 147.577px 374.349px;" id="elp2qf7yuxfd" class="animable"></path><path d="M202.46,380.51c0,1.73-2.88.08-6.44.17s-6.4,1.91-6.45.18,2.8-3.22,6.36-3.31S202.42,378.78,202.46,380.51Z" style="fill: rgb(133, 133, 133); stroke: rgb(38, 50, 56); stroke-linecap: round; stroke-linejoin: round; stroke-width: 1.03017px; transform-origin: 196.015px 379.574px;" id="elx45ztmzadld" class="animable"></path><path d="M179.19,378.68c0,1.77-2.94.05-6.58.1s-6.55,1.86-6.58.09,2.9-3.24,6.54-3.29S179.17,376.92,179.19,378.68Z" style="fill: rgb(133, 133, 133); stroke: rgb(38, 50, 56); stroke-linecap: round; stroke-linejoin: round; stroke-width: 1.03017px; transform-origin: 172.61px 377.612px;" id="el6eiffq9kkv2" class="animable"></path><path d="M185.63,375.26c-.11,1.35-2.25-.19-5-.42s-5.14.93-5-.42,2.46-2.26,5.23-2S185.75,373.91,185.63,375.26Z" style="fill: rgb(153, 153, 153); stroke: rgb(38, 50, 56); stroke-linecap: round; stroke-linejoin: round; stroke-width: 1.03017px; transform-origin: 180.63px 374.092px;" id="el54lw82b6meq" class="animable"></path><path d="M309,382.78c-.12,1.35-2.25-.18-5-.42s-5.14.93-5-.42,2.46-2.25,5.23-2S309.08,381.43,309,382.78Z" style="fill: rgb(133, 133, 133); stroke: rgb(38, 50, 56); stroke-linecap: round; stroke-linejoin: round; stroke-width: 1.03017px; transform-origin: 303.998px 381.614px;" id="el46eno4nl60z" class="animable"></path><path d="M334,388.07c-.11,1.35-2.25-.19-5-.42s-5.14.93-5-.42,2.45-2.26,5.23-2S334.14,386.72,334,388.07Z" style="fill: rgb(133, 133, 133); stroke: rgb(38, 50, 56); stroke-linecap: round; stroke-linejoin: round; stroke-width: 1.03017px; transform-origin: 329px 386.902px;" id="elj0luux4x9y8" class="animable"></path><path d="M279.93,382.65c.2,1.34-2.23.32-5,.72s-4.79,2.07-5,.73,1.88-2.76,4.64-3.16S279.74,381.31,279.93,382.65Z" style="fill: rgb(133, 133, 133); stroke: rgb(38, 50, 56); stroke-linecap: round; stroke-linejoin: round; stroke-width: 1.03017px; transform-origin: 274.928px 382.723px;" id="elet0dwnyek3" class="animable"></path><path d="M192.78,385.52c-.11,1.36-2.25-.18-5-.42s-5.14.93-5-.42,2.46-2.25,5.23-2S192.9,384.17,192.78,385.52Z" style="fill: rgb(133, 133, 133); stroke: rgb(38, 50, 56); stroke-linecap: round; stroke-linejoin: round; stroke-width: 1.03017px; transform-origin: 187.779px 384.356px;" id="elhtsynne9yuo" class="animable"></path><path d="M215.58,385.52c-.11,1.36-2.25-.18-5-.42s-5.14.93-5-.42,2.46-2.25,5.23-2S215.7,384.17,215.58,385.52Z" style="fill: rgb(153, 153, 153); stroke: rgb(38, 50, 56); stroke-linecap: round; stroke-linejoin: round; stroke-width: 1.03017px; transform-origin: 210.579px 384.356px;" id="elqrvb1qojr" class="animable"></path><path d="M270.48,387.25c-.12,1.35-2.26-.19-5-.42s-5.14.93-5-.42,2.46-2.26,5.23-2S270.59,385.9,270.48,387.25Z" style="fill: rgb(153, 153, 153); stroke: rgb(38, 50, 56); stroke-linecap: round; stroke-linejoin: round; stroke-width: 1.03017px; transform-origin: 265.479px 386.082px;" id="elzmeyzps879" class="animable"></path><path d="M160,365.77c-.11,2-3.35-.18-7.47-.4S145,367,145.05,365s3.54-3.46,7.67-3.24S160.1,363.76,160,365.77Z" style="fill: rgb(133, 133, 133); stroke: rgb(38, 50, 56); stroke-linecap: round; stroke-linejoin: round; stroke-width: 1.03017px; transform-origin: 152.526px 364.173px;" id="elxc5h8df5hfi" class="animable"></path><path d="M177.31,369.28c-.23,1.6-2.68-.38-6-.84s-6.2.76-6-.84,3.08-2.54,6.38-2.07S177.53,367.67,177.31,369.28Z" style="fill: rgb(133, 133, 133); stroke: rgb(38, 50, 56); stroke-linecap: round; stroke-linejoin: round; stroke-width: 1.03017px; transform-origin: 171.312px 367.651px;" id="el36ivlx5uhvp" class="animable"></path><path d="M169.13,372.23c-.1,2-3.35-.17-7.47-.39s-7.58,1.62-7.48-.39,3.54-3.46,7.67-3.25S169.24,370.23,169.13,372.23Z" style="fill: rgb(133, 133, 133); stroke: rgb(38, 50, 56); stroke-linecap: round; stroke-linejoin: round; stroke-width: 1.03017px; transform-origin: 161.655px 370.625px;" id="eljcd9zoj815" class="animable"></path><path d="M295.31,385.05c.14,2-3.34.23-7.47.51s-7.32,2.51-7.46.51,3.09-3.86,7.22-4.14S295.17,383,295.31,385.05Z" style="fill: rgb(133, 133, 133); stroke: rgb(38, 50, 56); stroke-linecap: round; stroke-linejoin: round; stroke-width: 1.03017px; transform-origin: 287.845px 384.394px;" id="el9ut607cs1d9" class="animable"></path><circle cx="351.66" cy="350.35" r="8.22" style="fill: rgb(255, 255, 255); stroke: rgb(38, 50, 56); stroke-linecap: round; stroke-linejoin: round; stroke-width: 1.03017px; transform-origin: 351.66px 350.35px;" id="ellxpjemz7m3j" class="animable"></circle><path d="M356.81,352.29a5.35,5.35,0,0,1-.8,1.44" style="fill: rgb(255, 255, 255); stroke: rgb(38, 50, 56); stroke-linecap: round; stroke-linejoin: round; stroke-width: 1.03017px; transform-origin: 356.41px 353.01px;" id="el9kqgtv1v7vb" class="animable"></path><path d="M351.66,344.85a5.5,5.5,0,0,1,5.5,5.5" style="fill: rgb(255, 255, 255); stroke: rgb(38, 50, 56); stroke-linecap: round; stroke-linejoin: round; stroke-width: 1.03017px; transform-origin: 354.41px 347.6px;" id="el14zl2zaaelf" class="animable"></path><path d="M374.92,265.58a5.93,5.93,0,1,1-5.93-5.93A5.93,5.93,0,0,1,374.92,265.58Z" style="fill: rgb(255, 255, 255); stroke: rgb(38, 50, 56); stroke-linecap: round; stroke-linejoin: round; stroke-width: 0.772628px; transform-origin: 368.99px 265.58px;" id="elfglm83x90bt" class="animable"></path><path d="M372.71,267a3.91,3.91,0,0,1-.58,1" style="fill: rgb(255, 255, 255); stroke: rgb(38, 50, 56); stroke-linecap: round; stroke-linejoin: round; stroke-width: 0.772628px; transform-origin: 372.42px 267.5px;" id="elr0ksz2u7iwj" class="animable"></path><path d="M369,261.61a4,4,0,0,1,4,4" style="fill: rgb(255, 255, 255); stroke: rgb(38, 50, 56); stroke-linecap: round; stroke-linejoin: round; stroke-width: 0.772628px; transform-origin: 371px 263.61px;" id="eldsf06sw0zr6" class="animable"></path><path d="M354.63,209a5.93,5.93,0,1,1-5.93-5.92A5.92,5.92,0,0,1,354.63,209Z" style="fill: rgb(255, 255, 255); stroke: rgb(38, 50, 56); stroke-linecap: round; stroke-linejoin: round; stroke-width: 0.772628px; transform-origin: 348.7px 209.01px;" id="elza7dd3k0g4" class="animable"></path><path d="M352.42,210.43a3.74,3.74,0,0,1-.58,1" style="fill: rgb(255, 255, 255); stroke: rgb(38, 50, 56); stroke-linecap: round; stroke-linejoin: round; stroke-width: 0.772628px; transform-origin: 352.13px 210.93px;" id="elbayu16i3i84" class="animable"></path><path d="M348.7,205.06a4,4,0,0,1,4,4" style="fill: rgb(255, 255, 255); stroke: rgb(38, 50, 56); stroke-linecap: round; stroke-linejoin: round; stroke-width: 0.772628px; transform-origin: 350.7px 207.06px;" id="elhwhvg1t0q0p" class="animable"></path><circle cx="370.31" cy="331.7" r="8.22" style="fill: rgb(255, 255, 255); stroke: rgb(38, 50, 56); stroke-linecap: round; stroke-linejoin: round; stroke-width: 1.03017px; transform-origin: 370.31px 331.7px;" id="elae9pczipgu8" class="animable"></circle><path d="M373.57,327.26a5.52,5.52,0,0,1,2.25,4.44" style="fill: rgb(255, 255, 255); stroke: rgb(38, 50, 56); stroke-linecap: round; stroke-linejoin: round; stroke-width: 1.03017px; transform-origin: 374.695px 329.48px;" id="ellflilp8i5o" class="animable"></path><path d="M370.31,326.19a5.63,5.63,0,0,1,1.75.29" style="fill: rgb(255, 255, 255); stroke: rgb(38, 50, 56); stroke-linecap: round; stroke-linejoin: round; stroke-width: 1.03017px; transform-origin: 371.185px 326.335px;" id="eluu9vxf8gqk" class="animable"></path><g id="elmq4h36mv9go"><circle cx="366.8" cy="195.94" r="12.38" style="fill: rgb(255, 255, 255); stroke: rgb(38, 50, 56); stroke-linecap: round; stroke-linejoin: round; stroke-width: 1.03017px; transform-origin: 366.8px 195.94px; transform: rotate(-45deg);" class="animable" id="elq54wkhy21c"></circle></g><path d="M371.71,189.25a8.31,8.31,0,0,1,3.38,6.69" style="fill: rgb(255, 255, 255); stroke: rgb(38, 50, 56); stroke-linecap: round; stroke-linejoin: round; stroke-width: 1.03017px; transform-origin: 373.4px 192.595px;" id="eluwezzz5xv3" class="animable"></path><path d="M366.8,187.64a8.54,8.54,0,0,1,2.64.43" style="fill: rgb(255, 255, 255); stroke: rgb(38, 50, 56); stroke-linecap: round; stroke-linejoin: round; stroke-width: 1.03017px; transform-origin: 368.12px 187.855px;" id="ele1ohl54tmy" class="animable"></path><circle cx="371.28" cy="301.24" r="11.41" style="fill: rgb(255, 255, 255); stroke: rgb(38, 50, 56); stroke-linecap: round; stroke-linejoin: round; stroke-width: 1.03017px; transform-origin: 371.28px 301.24px;" id="eljaq3xry3if" class="animable"></circle><path d="M375.81,295.08a7.65,7.65,0,0,1,3.12,6.16" style="fill: rgb(255, 255, 255); stroke: rgb(38, 50, 56); stroke-linecap: round; stroke-linejoin: round; stroke-width: 1.03017px; transform-origin: 377.37px 298.16px;" id="ely542ujtefha" class="animable"></path><path d="M371.28,293.6a7.89,7.89,0,0,1,2.44.39" style="fill: rgb(255, 255, 255); stroke: rgb(38, 50, 56); stroke-linecap: round; stroke-linejoin: round; stroke-width: 1.03017px; transform-origin: 372.5px 293.795px;" id="elpg0nbxatc1" class="animable"></path><circle cx="343.87" cy="267.22" r="5.7" style="fill: rgb(255, 255, 255); stroke: rgb(38, 50, 56); stroke-linecap: round; stroke-linejoin: round; stroke-width: 0.772628px; transform-origin: 343.87px 267.22px;" id="els9n8fl9jx2" class="animable"></circle><path d="M346.13,264.14a3.82,3.82,0,0,1,1.56,3.08" style="fill: rgb(255, 255, 255); stroke: rgb(38, 50, 56); stroke-linecap: round; stroke-linejoin: round; stroke-width: 0.772628px; transform-origin: 346.91px 265.68px;" id="ellsjorwdniqh" class="animable"></path><path d="M343.87,263.4a3.85,3.85,0,0,1,1.22.2" style="fill: rgb(255, 255, 255); stroke: rgb(38, 50, 56); stroke-linecap: round; stroke-linejoin: round; stroke-width: 0.772628px; transform-origin: 344.48px 263.5px;" id="elzj6nyhv28" class="animable"></path></g><g id="freepik--Goldfish--inject-37" class="animable" style="transform-origin: 289.806px 271.956px;"><path d="M261,301.89c-1.87,4-2.35,11.46,0,22.24s8.92,24.49,13.13,14.6,6.46-7.25,8.62-15.58,2.55-15.68.39-21.26-6.62,4.77-16.36-1.37C265.47,299.72,262.62,298.36,261,301.89Z" style="fill: rgb(255, 255, 255); transform-origin: 271.995px 320.861px;" id="elqmsanm5h66b" class="animable"></path><g style="clip-path: url(&quot;#freepik--clip-path--inject-37&quot;); transform-origin: 267.636px 311.143px;" id="elt5o9g6q855f" class="animable"><path d="M274.11,302.46a11,11,0,0,1-7.38-1.94c-1.26-.8-4.11-2.16-5.78,1.37-1.55,3.29-2.14,9-.95,17,2.06,3.43,5.95,6.69,11.94-.4C277.15,312.38,276.5,306.8,274.11,302.46Z" style="fill: #FF725E; transform-origin: 267.636px 311.143px;" id="ellahbyt28xad" class="animable"></path><g id="elesyvozyx0i"><path d="M274.11,302.46a11,11,0,0,1-7.38-1.94c-1.26-.8-4.11-2.16-5.78,1.37-1.55,3.29-2.14,9-.95,17,2.06,3.43,5.95,6.69,11.94-.4C277.15,312.38,276.5,306.8,274.11,302.46Z" style="opacity: 0.2; transform-origin: 267.636px 311.143px;" class="animable" id="elze1y4x89gc"></path></g></g><path d="M261,301.89c-1.87,4-2.35,11.46,0,22.24s8.92,24.49,13.13,14.6,6.46-7.25,8.62-15.58,2.55-15.68.39-21.26-6.62,4.77-16.36-1.37C265.47,299.72,262.62,298.36,261,301.89Z" style="fill: none; stroke: rgb(38, 50, 56); stroke-linecap: round; stroke-linejoin: round; stroke-width: 1.03017px; transform-origin: 271.995px 320.861px;" id="elevjaxdlph1t" class="animable"></path><path d="M269.55,330.1a28,28,0,0,0,1.81,2.84" style="fill: none; stroke: rgb(38, 50, 56); stroke-linecap: round; stroke-linejoin: round; stroke-width: 0.772628px; transform-origin: 270.455px 331.52px;" id="el28721bo5td9" class="animable"></path><path d="M262.73,306.05s1.09,11.74,5.43,21.3" style="fill: none; stroke: rgb(38, 50, 56); stroke-linecap: round; stroke-linejoin: round; stroke-width: 0.772628px; transform-origin: 265.445px 316.7px;" id="el2rpatw4zopv" class="animable"></path><path d="M268,311.65c1.89,4.28,4.75,9.6,8.51,13.51" style="fill: none; stroke: rgb(38, 50, 56); stroke-linecap: round; stroke-linejoin: round; stroke-width: 0.772628px; transform-origin: 272.255px 318.405px;" id="elyo2gpxycv9i" class="animable"></path><path d="M266.19,307.28c.25.67.54,1.43.88,2.25" style="fill: none; stroke: rgb(38, 50, 56); stroke-linecap: round; stroke-linejoin: round; stroke-width: 0.772628px; transform-origin: 266.63px 308.405px;" id="el1k8l6w9jgjs" class="animable"></path><path d="M269.4,306.05c2.59,2.62,6.86,6.08,10.46,4.85" style="fill: none; stroke: rgb(38, 50, 56); stroke-linecap: round; stroke-linejoin: round; stroke-width: 0.772628px; transform-origin: 274.63px 308.603px;" id="elq561l2l77kd" class="animable"></path><path d="M220.23,262.31s-.71-11,11.25-16.4,17.11-3.76,17.11-3.76,11.72-12.19,26-7.5,19.46,17.35,23.91,17.12,26.26-23.68,47.12-30.24,18.05,7.5,14.54,13.59-.47,10.79-18.76,21.33S337,266.3,319.86,267c0,0,9.61,1.38,11.72,6.55s14.3,13.38,15.24,25.57.7,29.3-19.46,12.19-22.51-20.63-26-26.26-7.27-7.73-8.44-2.57-2.11,16.87-20.87,20.86-27.19-8.21-32.81-11.72-12.43-12-18.06-14.3S216,263.49,220.23,262.31Z" style="fill: rgb(255, 255, 255); transform-origin: 289.806px 269.176px;" id="elxsjlb4y0p4g" class="animable"></path><g style="clip-path: url(&quot;#freepik--clip-path-2--inject-37&quot;); transform-origin: 270.192px 262.588px;" id="elenuvlzzcay" class="animable"><path d="M313.31,267.21c6.47-4.61,2.5-4.36,2.06-7.55s10-15.62,7.64-19.59c-1.17-2-4.37-1.69-7.27-.9-8.52,6.65-15,12.48-17.22,12.6-4.45.23-9.61-12.43-23.91-17.12s-26,7.5-26,7.5-5.16-1.64-17.11,3.76-11.25,16.4-11.25,16.4c-3,.84-4.12,7-2.44,11.24.15-4.87,9.7,1.2,15.28,6s13.28,1.2,16.9.8,5.59-4.85,8.2-3.74-3.2,5.8-1.74,7,5.74-1.79,9.27-7.08,8.67-12.19,16.75-8.52,7.65,23.59,7.65,23.59a33.5,33.5,0,0,0,2.8-9.1c1.17-5.16,4.92-3.05,8.44,2.57.8,1.3,1.55,2.48,2.47,3.74,2.35,3.06,7.61,4.3,11.71.07C319.78,284.45,306.85,271.81,313.31,267.21Zm-56-24.94a1.09,1.09,0,0,1-.69-1.92c2.41-2,7.29-4.81,14.79-3.82a1.1,1.1,0,0,1,.32,2.08C268.53,240.14,263,242.29,257.3,242.27Zm19.47,22.25c-2.3.73-6.09,1.6-8.73.42a2.74,2.74,0,0,1,.64-5.19,11.19,11.19,0,0,1,3.34-.09,9.23,9.23,0,0,1,5.31,2.36A1.49,1.49,0,0,1,276.77,264.52Zm18.76-7.44a1.22,1.22,0,0,1,.28-2.08c1.71-.71,4.11-1.51,4.57-.68C301.06,255.54,300.86,261.26,295.53,257.08Z" style="fill: #FF725E; transform-origin: 270.192px 262.588px;" id="elcldeuwy2qob" class="animable"></path><g id="elp4qe6d8chao"><path d="M287.78,264.52a2.11,2.11,0,0,1,1.08-3.33c3.9-1.12,10.08-2.34,10.35,1,.4,4.89-1.44,14.06-4.14,13.2C292.73,274.66,291.59,269.46,287.78,264.52Z" style="opacity: 0.2; transform-origin: 293.298px 267.732px;" class="animable" id="elq7wz550zwib"></path></g></g><path d="M220.23,262.31s-.71-11,11.25-16.4,17.11-3.76,17.11-3.76,11.72-12.19,26-7.5,19.46,17.35,23.91,17.12,26.26-23.68,47.12-30.24,18.05,7.5,14.54,13.59-.47,10.79-18.76,21.33S337,266.3,319.86,267c0,0,9.61,1.38,11.72,6.55s14.3,13.38,15.24,25.57.7,29.3-19.46,12.19-22.51-20.63-26-26.26-7.27-7.73-8.44-2.57-2.11,16.87-20.87,20.86-27.19-8.21-32.81-11.72-12.43-12-18.06-14.3S216,263.49,220.23,262.31Z" style="fill: none; stroke: rgb(38, 50, 56); stroke-linecap: round; stroke-linejoin: round; stroke-width: 1.03017px; transform-origin: 289.806px 269.176px;" id="el8gxub2jeb82" class="animable"></path><path d="M240.13,266.52a2.75,2.75,0,1,1-2.75-2.74A2.74,2.74,0,0,1,240.13,266.52Z" style="fill: rgb(38, 50, 56); stroke: rgb(38, 50, 56); stroke-linecap: round; stroke-linejoin: round; stroke-width: 1.03017px; transform-origin: 237.38px 266.53px;" id="elo79jdo4f3fi" class="animable"></path><path d="M238.78,266.52a1.4,1.4,0,1,1-1.4-1.4A1.4,1.4,0,0,1,238.78,266.52Z" style="fill: rgb(255, 255, 255); stroke: rgb(38, 50, 56); stroke-linecap: round; stroke-linejoin: round; stroke-width: 1.03017px; transform-origin: 237.38px 266.52px;" id="el4l1me0b1k6u" class="animable"></path><path d="M232.29,266.52a5.1,5.1,0,0,1,10.19,0" style="fill: none; stroke: rgb(38, 50, 56); stroke-linecap: round; stroke-linejoin: round; stroke-width: 1.03017px; transform-origin: 237.385px 264.083px;" id="elp52r83a9k1" class="animable"></path><path d="M217.13,270.94s.76-2.56,6.44.67" style="fill: none; stroke: rgb(38, 50, 56); stroke-linecap: round; stroke-linejoin: round; stroke-width: 1.03017px; transform-origin: 220.35px 270.794px;" id="elnbaag8zcyq" class="animable"></path><path d="M221.16,277.32s-2.95-3.59-.81-3.77,3.91,3.49,6.65,3.77c0,0,6.17,8.6,16.65,5.66s6.57-15.77,6.57-15.77" style="fill: none; stroke: rgb(38, 50, 56); stroke-linecap: round; stroke-linejoin: round; stroke-width: 1.03017px; transform-origin: 235.253px 275.401px;" id="el379vi1ghhs5" class="animable"></path><path d="M249.14,243s3.53,4.31,3.92,8.42,9.5,2.26,10.58,13.13-10.87,15.19-10.87,15.19" style="fill: none; stroke: rgb(38, 50, 56); stroke-linecap: round; stroke-linejoin: round; stroke-width: 1.03017px; transform-origin: 256.425px 261.37px;" id="elqdyfzhaffc" class="animable"></path><path d="M253.35,288s-1.17,13.42,1.08,11.26,4.12-4.11,6.76-3.52-3.62-5.59-5.29-8.53C255.9,287.19,256,290,253.35,288Z" style="fill: #FF725E; stroke: rgb(38, 50, 56); stroke-linecap: round; stroke-linejoin: round; stroke-width: 1.03017px; transform-origin: 257.438px 293.353px;" id="elfe7vv8mzyqu" class="animable"></path><path d="M280.1,259.66s8.13,5.19,12.34,19.3" style="fill: none; stroke: rgb(38, 50, 56); stroke-linecap: round; stroke-linejoin: round; stroke-width: 1.03017px; transform-origin: 286.27px 269.31px;" id="elaic7y9g5lnp" class="animable"></path><path d="M305.77,273.3c6.32,4.5,17.9,11.38,31.2,12.87" style="fill: none; stroke: rgb(38, 50, 56); stroke-linecap: round; stroke-linejoin: round; stroke-width: 0.772628px; transform-origin: 321.37px 279.735px;" id="eltx11ppntejm" class="animable"></path><path d="M300.66,269.31s.75.68,2.12,1.76" style="fill: none; stroke: rgb(38, 50, 56); stroke-linecap: round; stroke-linejoin: round; stroke-width: 0.772628px; transform-origin: 301.72px 270.19px;" id="elei1kvprdnnh" class="animable"></path><path d="M341.22,303.83c1.39.47,2.22.71,2.22.71" style="fill: none; stroke: rgb(38, 50, 56); stroke-linecap: round; stroke-linejoin: round; stroke-width: 0.772628px; transform-origin: 342.33px 304.185px;" id="el5g37cfki2p7" class="animable"></path><path d="M298.91,273.55s9.68,11.73,19.91,19.25c7.12,5.24,16.28,8.88,21.17,10.61" style="fill: none; stroke: rgb(38, 50, 56); stroke-linecap: round; stroke-linejoin: round; stroke-width: 0.772628px; transform-origin: 319.45px 288.48px;" id="eln9hvrrvf5i" class="animable"></path><path d="M350.14,228a39.32,39.32,0,0,1,4.76-.7" style="fill: none; stroke: rgb(38, 50, 56); stroke-linecap: round; stroke-linejoin: round; stroke-width: 0.772628px; transform-origin: 352.52px 227.65px;" id="elow4oc6c6my" class="animable"></path><path d="M304.82,255.5s19.54-19.46,40.06-26.12" style="fill: none; stroke: rgb(38, 50, 56); stroke-linecap: round; stroke-linejoin: round; stroke-width: 0.772628px; transform-origin: 324.85px 242.44px;" id="eltcrr9kqq9n" class="animable"></path><path d="M351.34,238.07c1,0,2,0,3,.13" style="fill: none; stroke: rgb(38, 50, 56); stroke-linecap: round; stroke-linejoin: round; stroke-width: 0.772628px; transform-origin: 352.84px 238.135px;" id="elm3aq3ul5ih" class="animable"></path><path d="M304.2,259.66s22.88-19.87,44.5-21.48" style="fill: none; stroke: rgb(38, 50, 56); stroke-linecap: round; stroke-linejoin: round; stroke-width: 0.772628px; transform-origin: 326.45px 248.92px;" id="el9ny97u99n6b" class="animable"></path><path d="M331.17,256.07c.8,0,1.61.11,2.42.21" style="fill: none; stroke: rgb(38, 50, 56); stroke-linecap: round; stroke-linejoin: round; stroke-width: 0.772628px; transform-origin: 332.38px 256.175px;" id="elxjfb65hltq" class="animable"></path><path d="M304.2,263.29A49.16,49.16,0,0,1,329,256" style="fill: none; stroke: rgb(38, 50, 56); stroke-linecap: round; stroke-linejoin: round; stroke-width: 0.772628px; transform-origin: 316.6px 259.645px;" id="elskojq981jqo" class="animable"></path><path d="M273,301.89c-1.87,4-2.35,11.46,0,22.24s8.91,24.49,13.13,14.6,6.46-7.25,8.62-15.58,2.54-15.68.39-21.26-6.63,4.77-16.36-1.37C277.47,299.72,274.61,298.36,273,301.89Z" style="fill: rgb(255, 255, 255); transform-origin: 283.993px 320.861px;" id="el44u30272ekq" class="animable"></path><g style="clip-path: url(&quot;#freepik--clip-path-3--inject-37&quot;); transform-origin: 279.625px 311.143px;" id="ely9pe66n305b" class="animable"><path d="M286.11,302.46a11,11,0,0,1-7.38-1.94c-1.26-.8-4.12-2.16-5.78,1.37-1.56,3.29-2.14,9-1,17,2.07,3.43,5.95,6.69,11.95-.4C289.14,312.38,288.5,306.8,286.11,302.46Z" style="fill: #FF725E; transform-origin: 279.625px 311.143px;" id="el971hmoagzyf" class="animable"></path></g><path d="M273,301.89c-1.87,4-2.35,11.46,0,22.24s8.91,24.49,13.13,14.6,6.46-7.25,8.62-15.58,2.54-15.68.39-21.26-6.63,4.77-16.36-1.37C277.47,299.72,274.61,298.36,273,301.89Z" style="fill: none; stroke: rgb(38, 50, 56); stroke-linecap: round; stroke-linejoin: round; stroke-width: 1.03017px; transform-origin: 283.993px 320.861px;" id="elnlfigc2ysa9" class="animable"></path><path d="M281.94,330.79c.45.75.92,1.47,1.41,2.15" style="fill: none; stroke: rgb(38, 50, 56); stroke-linecap: round; stroke-linejoin: round; stroke-width: 0.772628px; transform-origin: 282.645px 331.865px;" id="ell71k1s7mpwh" class="animable"></path><path d="M274.73,306.05s1.21,13.11,6.2,22.9" style="fill: none; stroke: rgb(38, 50, 56); stroke-linecap: round; stroke-linejoin: round; stroke-width: 0.772628px; transform-origin: 277.83px 317.5px;" id="eld3hcv31vmpm" class="animable"></path><path d="M286.88,323.36c.51.62,1,1.23,1.59,1.8" style="fill: none; stroke: rgb(38, 50, 56); stroke-linecap: round; stroke-linejoin: round; stroke-width: 0.772628px; transform-origin: 287.675px 324.26px;" id="eloxrqzqzygi" class="animable"></path><path d="M277.22,304.44s2.94,9.84,8.52,17.44" style="fill: none; stroke: rgb(38, 50, 56); stroke-linecap: round; stroke-linejoin: round; stroke-width: 0.772628px; transform-origin: 281.48px 313.16px;" id="el9fnrfedcq1c" class="animable"></path><path d="M290.4,311.16a5.21,5.21,0,0,0,1.46-.26" style="fill: none; stroke: rgb(38, 50, 56); stroke-linecap: round; stroke-linejoin: round; stroke-width: 0.772628px; transform-origin: 291.13px 311.03px;" id="elqz49klf81o" class="animable"></path><path d="M279,303.41s4.69,6.1,9.43,7.47" style="fill: none; stroke: rgb(38, 50, 56); stroke-linecap: round; stroke-linejoin: round; stroke-width: 0.772628px; transform-origin: 283.715px 307.145px;" id="elaz2gmektk9f" class="animable"></path><path d="M316.74,302.09c-10.59-9.48-12.63-12.61-15.4-17-3.52-5.62-7.27-7.73-8.44-2.57,5.86,4.71,4.54,11.52,6.6,20.63s-.44,22.78,4.7,25.87,4.85-7.2,6.32-9.56,4.11-3.08,3.67-9.4C313.88,305.57,315.47,303.92,316.74,302.09Z" style="fill: rgb(255, 255, 255); transform-origin: 304.82px 304.585px;" id="elhf91s1rh9nq" class="animable"></path><g style="clip-path: url(&quot;#freepik--clip-path-4--inject-37&quot;); transform-origin: 299.995px 286.181px;" id="elivjoniqhvv" class="animable"><path d="M301.34,285.05c-3.52-5.62-7.27-7.73-8.44-2.57a13.11,13.11,0,0,1,4.63,8.21,17.27,17.27,0,0,0,9.56,2.09h0A46.4,46.4,0,0,1,301.34,285.05Z" style="fill: #FF725E; transform-origin: 299.995px 286.181px;" id="eltxmi86nbpub" class="animable"></path><g id="elftg2034r4uq"><path d="M301.34,285.05c-3.52-5.62-7.27-7.73-8.44-2.57a13.11,13.11,0,0,1,4.63,8.21,17.27,17.27,0,0,0,9.56,2.09h0A46.4,46.4,0,0,1,301.34,285.05Z" style="opacity: 0.2; transform-origin: 299.995px 286.181px;" class="animable" id="elpiz42zz1x2f"></path></g></g><path d="M316.74,302.09c-10.59-9.48-12.63-12.61-15.4-17-3.52-5.62-7.27-7.73-8.44-2.57,5.86,4.71,4.54,11.52,6.6,20.63s-.44,22.78,4.7,25.87,4.85-7.2,6.32-9.56,4.11-3.08,3.67-9.4C313.88,305.57,315.47,303.92,316.74,302.09Z" style="fill: none; stroke: rgb(38, 50, 56); stroke-linecap: round; stroke-linejoin: round; stroke-width: 1.03017px; transform-origin: 304.82px 304.585px;" id="elwujg0gkygb" class="animable"></path><path d="M300,289.48a78.27,78.27,0,0,0,4.2,10.92c2.86,5.49,6,10.76,6,10.76" style="fill: none; stroke: rgb(38, 50, 56); stroke-linecap: round; stroke-linejoin: round; stroke-width: 0.772628px; transform-origin: 305.1px 300.32px;" id="elp5lm6bh8ug" class="animable"></path><path d="M298.25,283.59s.36,1.34,1,3.33" style="fill: none; stroke: rgb(38, 50, 56); stroke-linecap: round; stroke-linejoin: round; stroke-width: 0.772628px; transform-origin: 298.75px 285.255px;" id="elwfp406g20s" class="animable"></path><path d="M254.36,237.71c4.79-2.92,12.1-5.73,20.25-3.06,10.63,3.49,16.2,11.37,20.2,15.09,1.66-1.28,3.78-2.17,10-4.53,7.38-2.79-5.32-13.67-8.7-19.69s-2.94-7.2-16-10.73-12.64-12-14.7-12.93-5.73,5.88-5.73,5.88c-6.46,6.61-5.14,22.48-5.14,22.48C253.65,231.1,254.09,235.55,254.36,237.71Z" style="fill: rgb(255, 255, 255); transform-origin: 280.544px 225.756px;" id="elxlykkv9tvlq" class="animable"></path><g style="clip-path: url(&quot;#freepik--clip-path-5--inject-37&quot;); transform-origin: 276.119px 235.17px;" id="elg7iug5reht5" class="animable"><path d="M298.25,247.82c-.28-3.71-3.8-9-12-16.72-9.37-8.86-24.88-10.3-31.5-10.5a53.84,53.84,0,0,0-.24,9.62c-.88.88-.44,5.33-.17,7.49,4.79-2.92,12.1-5.73,20.25-3.06,10.63,3.49,16.2,11.37,20.2,15.09A15.45,15.45,0,0,1,298.25,247.82Z" style="fill: #FF725E; transform-origin: 276.119px 235.17px;" id="elcfrjgphqnv" class="animable"></path></g><path d="M254.36,237.71c4.79-2.92,12.1-5.73,20.25-3.06,10.63,3.49,16.2,11.37,20.2,15.09,1.66-1.28,3.78-2.17,10-4.53,7.38-2.79-5.32-13.67-8.7-19.69s-2.94-7.2-16-10.73-12.64-12-14.7-12.93-5.73,5.88-5.73,5.88c-6.46,6.61-5.14,22.48-5.14,22.48C253.65,231.1,254.09,235.55,254.36,237.71Z" style="fill: none; stroke: rgb(38, 50, 56); stroke-linecap: round; stroke-linejoin: round; stroke-width: 1.03017px; transform-origin: 280.544px 225.756px;" id="elqtjk2u69nn" class="animable"></path><path d="M268.46,216.64a36.08,36.08,0,0,1,1.72-3.47" style="fill: none; stroke: rgb(38, 50, 56); stroke-linecap: round; stroke-linejoin: round; stroke-width: 0.772628px; transform-origin: 269.32px 214.905px;" id="el7cdmtbtlkn3" class="animable"></path><path d="M264.28,231.1a63.75,63.75,0,0,1,3.38-12.55" style="fill: none; stroke: rgb(38, 50, 56); stroke-linecap: round; stroke-linejoin: round; stroke-width: 0.772628px; transform-origin: 265.97px 224.825px;" id="ell4dqw19utv" class="animable"></path><path d="M277.13,217.58l.67-.88" style="fill: none; stroke: rgb(38, 50, 56); stroke-linecap: round; stroke-linejoin: round; stroke-width: 0.772628px; transform-origin: 277.465px 217.14px;" id="elal7nonka1rf" class="animable"></path><path d="M270.18,231.1a44.07,44.07,0,0,1,6-12.19" style="fill: none; stroke: rgb(38, 50, 56); stroke-linecap: round; stroke-linejoin: round; stroke-width: 0.772628px; transform-origin: 273.18px 225.005px;" id="el2mrlvvyua5k" class="animable"></path><path d="M285,219.68c.41-.28.82-.54,1.24-.77" style="fill: none; stroke: rgb(38, 50, 56); stroke-linecap: round; stroke-linejoin: round; stroke-width: 0.772628px; transform-origin: 285.62px 219.295px;" id="el24ebc99akn2" class="animable"></path><path d="M275.25,232s3.25-7.07,8.58-11.4" style="fill: none; stroke: rgb(38, 50, 56); stroke-linecap: round; stroke-linejoin: round; stroke-width: 0.772628px; transform-origin: 279.54px 226.3px;" id="el1o3ro9u5u66" class="animable"></path><path d="M291.1,223.55a10.71,10.71,0,0,1,1.34-.38" style="fill: none; stroke: rgb(38, 50, 56); stroke-linecap: round; stroke-linejoin: round; stroke-width: 0.772628px; transform-origin: 291.77px 223.36px;" id="el65cc6hay953" class="animable"></path><path d="M280.1,232.87s4.2-6.19,9.72-8.79" style="fill: none; stroke: rgb(38, 50, 56); stroke-linecap: round; stroke-linejoin: round; stroke-width: 0.772628px; transform-origin: 284.96px 228.475px;" id="elqns4v2ul4ce" class="animable"></path><path d="M291.1,230a17.86,17.86,0,0,1,4-1.26" style="fill: none; stroke: rgb(38, 50, 56); stroke-linecap: round; stroke-linejoin: round; stroke-width: 0.772628px; transform-origin: 293.1px 229.37px;" id="els9g1pbntepg" class="animable"></path><path d="M283.48,235.37a26.64,26.64,0,0,1,5.79-4.43" style="fill: none; stroke: rgb(38, 50, 56); stroke-linecap: round; stroke-linejoin: round; stroke-width: 0.772628px; transform-origin: 286.375px 233.155px;" id="elz19sch3mna9" class="animable"></path><path d="M298.59,236.49a13.33,13.33,0,0,1,2.07-.17" style="fill: none; stroke: rgb(38, 50, 56); stroke-linecap: round; stroke-linejoin: round; stroke-width: 0.772628px; transform-origin: 299.625px 236.405px;" id="elye4xz342mk" class="animable"></path><path d="M289.82,240.07a28.9,28.9,0,0,1,6.91-3.16" style="fill: none; stroke: rgb(38, 50, 56); stroke-linecap: round; stroke-linejoin: round; stroke-width: 0.772628px; transform-origin: 293.275px 238.49px;" id="eln7t8nu9u1fa" class="animable"></path><path d="M264.28,209.74c.27-.48.54-1,.83-1.42" style="fill: none; stroke: rgb(38, 50, 56); stroke-linecap: round; stroke-linejoin: round; stroke-width: 0.772628px; transform-origin: 264.695px 209.03px;" id="el2tpkxe854ic" class="animable"></path><path d="M259.23,232.87s-.59-11.26,4.12-21.29" style="fill: none; stroke: rgb(38, 50, 56); stroke-linecap: round; stroke-linejoin: round; stroke-width: 0.772628px; transform-origin: 261.278px 222.225px;" id="elfryrd1m0pb6" class="animable"></path></g><defs><clipPath id="freepik--clip-path--inject-37"><path d="M261,301.89c-1.87,4-2.35,11.46,0,22.24s8.92,24.49,13.13,14.6,6.46-7.25,8.62-15.58,2.55-15.68.39-21.26-6.62,4.77-16.36-1.37C265.47,299.72,262.62,298.36,261,301.89Z" style="fill:#fff;stroke:#263238;stroke-linecap:round;stroke-linejoin:round;stroke-width:1.0301705598831177px"></path></clipPath><clipPath id="freepik--clip-path-2--inject-37"><path d="M220.23,262.31s-.71-11,11.25-16.4,17.11-3.76,17.11-3.76,11.72-12.19,26-7.5,19.46,17.35,23.91,17.12,26.26-23.68,47.12-30.24,18.05,7.5,14.54,13.59-.47,10.79-18.76,21.33S337,266.3,319.86,267c0,0,9.61,1.38,11.72,6.55s14.3,13.38,15.24,25.57.7,29.3-19.46,12.19-22.51-20.63-26-26.26-7.27-7.73-8.44-2.57-2.11,16.87-20.87,20.86-27.19-8.21-32.81-11.72-12.43-12-18.06-14.3S216,263.49,220.23,262.31Z" style="fill:#fff;stroke:#263238;stroke-linecap:round;stroke-linejoin:round;stroke-width:1.0301705598831177px"></path></clipPath><clipPath id="freepik--clip-path-3--inject-37"><path d="M273,301.89c-1.87,4-2.35,11.46,0,22.24s8.91,24.49,13.13,14.6,6.46-7.25,8.62-15.58,2.54-15.68.39-21.26-6.63,4.77-16.36-1.37C277.47,299.72,274.61,298.36,273,301.89Z" style="fill:#fff;stroke:#263238;stroke-linecap:round;stroke-linejoin:round;stroke-width:1.0301705598831177px"></path></clipPath><clipPath id="freepik--clip-path-4--inject-37"><path d="M316.74,302.09c-10.59-9.48-12.63-12.61-15.4-17-3.52-5.62-7.27-7.73-8.44-2.57,5.86,4.71,4.54,11.52,6.6,20.63s-.44,22.78,4.7,25.87,4.85-7.2,6.32-9.56,4.11-3.08,3.67-9.4C313.88,305.57,315.47,303.92,316.74,302.09Z" style="fill:#fff;stroke:#263238;stroke-linecap:round;stroke-linejoin:round;stroke-width:1.0301705598831177px"></path></clipPath><clipPath id="freepik--clip-path-5--inject-37"><path d="M254.36,237.71c4.79-2.92,12.1-5.73,20.25-3.06,10.63,3.49,16.2,11.37,20.2,15.09,1.66-1.28,3.78-2.17,10-4.53,7.38-2.79-5.32-13.67-8.7-19.69s-2.94-7.2-16-10.73-12.64-12-14.7-12.93-5.73,5.88-5.73,5.88c-6.46,6.61-5.14,22.48-5.14,22.48C253.65,231.1,254.09,235.55,254.36,237.71Z" style="fill:#fff;stroke:#263238;stroke-linecap:round;stroke-linejoin:round;stroke-width:1.0301705598831177px"></path></clipPath></defs><defs>     <filter id="active" height="200%">         <feMorphology in="SourceAlpha" result="DILATED" operator="dilate" radius="2"></feMorphology>                <feFlood flood-color="#32DFEC" flood-opacity="1" result="PINK"></feFlood>        <feComposite in="PINK" in2="DILATED" operator="in" result="OUTLINE"></feComposite>        <feMerge>            <feMergeNode in="OUTLINE"></feMergeNode>            <feMergeNode in="SourceGraphic"></feMergeNode>        </feMerge>    </filter>    <filter id="hover" height="200%">        <feMorphology in="SourceAlpha" result="DILATED" operator="dilate" radius="2"></feMorphology>                <feFlood flood-color="#ff0000" flood-opacity="0.5" result="PINK"></feFlood>        <feComposite in="PINK" in2="DILATED" operator="in" result="OUTLINE"></feComposite>        <feMerge>            <feMergeNode in="OUTLINE"></feMergeNode>            <feMergeNode in="SourceGraphic"></feMergeNode>        </feMerge>            <feColorMatrix type="matrix" values="0   0   0   0   0                0   1   0   0   0                0   0   0   0   0                0   0   0   1   0 "></feColorMatrix>    </filter></defs></svg>
